<?xml version="1.0" standalone="no"?><!DOCTYPE svg PUBLIC "-//W3C//DTD SVG 1.1//EN" "http://www.w3.org/Graphics/SVG/1.1/DTD/svg11.dtd"><svg t="1652783756707" class="icon" viewBox="0 0 1024 1024" version="1.1" xmlns="http://www.w3.org/2000/svg" p-id="1958" xmlns:xlink="http://www.w3.org/1999/xlink" width="200" height="200"><defs><style type="text/css">@font-face { font-family: feedback-iconfont; src: url("//at.alicdn.com/t/font_1031158_u69w8yhxdu.woff2?t=1630033759944") format("woff2"), url("//at.alicdn.com/t/font_1031158_u69w8yhxdu.woff?t=1630033759944") format("woff"), url("//at.alicdn.com/t/font_1031158_u69w8yhxdu.ttf?t=1630033759944") format("truetype"); }
</style></defs><path d="M690.090667 377.400889c5.916444 0 11.804444 0.199111 17.635555 0.512-24.433778-128.711111-158.321778-227.100444-319.914666-227.100445-178.801778 0-323.811556 120.604444-323.811556 269.368889 0 81.123556 43.605333 154.225778 111.900444 203.633778a21.504 21.504 0 0 1 7.992889 24.490667c-5.489778 20.309333-14.193778 52.792889-14.592 54.300444-0.711111 2.588444-1.706667 5.205333-1.706666 7.907556 0 5.888 4.807111 10.808889 10.808889 10.808889 2.275556 0 4.209778-0.910222 6.200888-1.991111l70.883556-40.931556c5.319111-3.100444 11.008-5.006222 17.208889-5.006222 3.214222 0 6.4 0.512 9.500444 1.422222a383.943111 383.943111 0 0 0 123.505778 14.392889 205.283556 205.283556 0 0 1-10.894222-65.991111c0-135.822222 132.181333-245.816889 295.281778-245.816889z m-194.275556-86.471111c23.779556 0 43.178667 19.285333 43.178667 43.064889a43.178667 43.178667 0 1 1-86.414222 0c0-23.779556 19.427556-43.093333 43.235555-43.093334z m-215.893333 86.186666a43.121778 43.121778 0 0 1 0-86.186666 43.121778 43.121778 0 1 1 0 86.186666z m586.780444 415.573334c56.888889-41.187556 93.184-101.973333 93.184-169.671111 0-124.017778-120.775111-224.512-269.880889-224.512-148.992 0-269.909333 100.494222-269.909333 224.512 0 123.989333 120.803556 224.483556 269.909333 224.483555 30.805333 0 60.586667-4.408889 88.092445-12.288a26.567111 26.567111 0 0 1 22.186666 2.901334l59.107556 33.991111c1.706667 0.995556 3.299556 1.706667 5.205333 1.706666a8.96 8.96 0 0 0 8.988445-9.016889c0-2.190222-0.881778-4.380444-1.393778-6.599111-0.284444-1.194667-7.594667-28.302222-12.202667-45.283555a22.556444 22.556444 0 0 1-0.881777-5.688889 18.460444 18.460444 0 0 1 7.594666-14.506667z m-266.524444-205.482667c-19.882667 0-35.982222-16.099556-35.982222-35.896889 0-19.797333 16.099556-35.896889 36.010666-35.896889 19.911111 0 35.982222 16.099556 35.982222 35.896889 0 19.797333-16.213333 35.896889-35.982222 35.896889z m179.911111 0c-19.911111 0-35.982222-16.099556-35.982222-35.896889 0-19.797333 16.099556-35.896889 35.982222-35.896889 19.911111 0 36.010667 16.099556 36.010667 35.896889a36.096 36.096 0 0 1-36.010667 35.896889z" p-id="1959"></path></svg>